<svg width="16" height="16" viewBox="0 0 16 16" fill="none" xmlns="http://www.w3.org/2000/svg"><g clip-path="url(#a)"><path fill-rule="evenodd" clip-rule="evenodd" d="M1.61513 1.61538a.9628.9628 0 0 1 .68077-.28199h11.407c.2417 0 .3402.02853.3947.05261.0577.0255.1305.07387.286.22938.2072.2072.282.43225.282.68077V13.6647a.66438.66438 0 0 0-.001.0374c0 .2553-.1014.5002-.282.6808a.96276.96276 0 0 1-.6808.2819H2.2959a.96292.96292 0 0 1-.68077-.2819.96298.96298 0 0 1-.28198-.6808V2.29615a.96275.96275 0 0 1 .28198-.68077ZM15.8381 14.5437a2.29606 2.29606 0 0 1-2.1363 1.4545H2.2959a2.29608 2.29608 0 0 1-2.29608-2.2961V2.29615A2.2961 2.2961 0 0 1 1.45849.15821c.11624-.09864.26674-.15815.43114-.15815H13.7029c.3374 0 .6429.0379.9336.16636.2875.12703.5011.31728.69.50615.4815.48156.6725 1.05738.6725 1.62358V14.1094c0 .1659-.0606.3177-.1609.4343Z" fill="#FCFCFC"/></g><defs><clipPath id="a"><path fill="#fff" d="M0 0h16v16H0z"/></clipPath></defs></svg>