<svg width="14" height="14" viewBox="0 0 14 14" fill="none" xmlns="http://www.w3.org/2000/svg"><path fill-rule="evenodd" clip-rule="evenodd" d="M7.00027 1.33333c-3.12976 0-5.66694 2.53718-5.66694 5.66694 0 3.12973 2.53718 5.66693 5.66694 5.66693 3.12973 0 5.66693-2.5372 5.66693-5.66693 0-3.12976-2.5372-5.66694-5.66693-5.66694ZM0 7.00027C0 3.13413 3.13413 0 7.00027 0c3.86613 0 7.00023 3.13413 7.00023 7.00027 0 3.86613-3.1341 7.00023-7.00023 7.00023C3.13413 14.0005 0 10.8664 0 7.00027Zm7.00006-.66695c.36819 0 .66666.29848.66666.66667v2.53344c0 .36819-.29847.66667-.66666.66667s-.66667-.29848-.66667-.66667V6.99999c0-.36819.29848-.66667.66667-.66667Zm0-2.53343c-.36819 0-.66667.29847-.66667.66666s.29848.66667.66667.66667h.00666c.36819 0 .66667-.29848.66667-.66667 0-.36819-.29848-.66666-.66667-.66666h-.00666Z" fill="#2D3440"/></svg>