<svg width="38" height="38" viewBox="0 0 38 38" fill="none" xmlns="http://www.w3.org/2000/svg"><rect x="37" y="37" width="36" height="36" rx="18" transform="rotate(180 37 37)" fill="#FCFCFC" fill-opacity=".3"/><path fill-rule="evenodd" clip-rule="evenodd" d="M19.8647 24.1352c.2597.2597.6808.2597.9405 0 .2597-.2597.2597-.6807 0-.9404l-4.2013-4.2013 4.2013-4.2013c.2597-.2597.2597-.6808 0-.9405-.2597-.2597-.6807-.2597-.9404 0l-4.6687 4.6688c-.001.0009-.0019.0018-.0029.0028-.2597.2597-.2597.6807 0 .9404l4.6715 4.6715Z" fill="#FCFCFC"/><rect x="37" y="37" width="36" height="36" rx="18" transform="rotate(180 37 37)" stroke="#FCFCFC" stroke-width="2"/></svg>