<svg width="14" height="14" viewBox="0 0 14 14" fill="none" xmlns="http://www.w3.org/2000/svg"><path fill-rule="evenodd" clip-rule="evenodd" d="M12.8858 2.05482c.2603-.26035.2603-.68246 0-.94281-.2604-.26035-.6825-.26035-.9428 0L6.99877 6.0562 2.05458 1.11201c-.26035-.26035-.68246-.26035-.94281 0-.26035.26035-.26035.68246 0 .94281l4.94419 4.94419-4.94419 4.94419c-.26035.2604-.26035.6825 0 .9428.26035.2604.68246.2604.94281 0l4.94419-4.94418L11.943 12.886c.2603.2604.6824.2604.9428 0 .2603-.2603.2603-.6824 0-.9428L7.94158 6.99901l4.94422-4.94419Z" fill="#2D3440"/></svg>