<svg width="14" height="15" viewBox="0 0 14 15" fill="none" xmlns="http://www.w3.org/2000/svg"><path fill-rule="evenodd" clip-rule="evenodd" d="M8 1.52461c0-.36819.29848-.66667.66667-.66667h2.66663c.5305 0 1.0392.21071 1.4142.58579a1.9999 1.9999 0 0 1 .5858 1.41421v9.33336c0 .5304-.2107 1.0391-.5858 1.4142-.375.3751-.8837.5858-1.4142.5858H8.66667c-.36819 0-.66667-.2985-.66667-.6667 0-.3682.29848-.6667.66667-.6667h2.66663c.1768 0 .3464-.0702.4714-.1952A.66635.66635 0 0 0 12 12.1913V2.85794a.66637.66637 0 0 0-.1953-.4714.66662.66662 0 0 0-.4714-.19527H8.66667C8.29848 2.19127 8 1.8928 8 1.52461ZM4.86189 3.71987c.26035-.26035.68246-.26035.94281 0l3.3291 3.3291a.67314.67314 0 0 1 .04858.05313.6635.6635 0 0 1 .08045.12379c.04511.08986.0705.19132.0705.29872 0 .10862-.02598.21118-.07206.30179a.66356.66356 0 0 1-.07371.11432.67124.67124 0 0 1-.05402.05978L5.8047 11.3293c-.26035.2604-.68246.2604-.94281 0-.26035-.2603-.26035-.6824 0-.9428l2.19526-2.19523H.66667C.29847 8.19127 0 7.8928 0 7.52461s.29848-.66667.66667-.66667h6.39048L4.86189 4.66268c-.26035-.26035-.26035-.68246 0-.94281Z" fill="#2D3440"/></svg>
